<svg
  role="img"
  aria-labelledby="loading-aria"
  viewBox="0 0 260 500"
  preserveAspectRatio="none"
>
  <title id="loading-aria">Загружается...</title>
  <rect
    x="0"
    y="0"
    width="100%"
    height="100%"
    clip-path="url(#clip-path)"
    style='fill: url("#fill");'
  ></rect>
  <defs>
    <clipPath id="clip-path">
        <rect x="387" y="550" rx="3" ry="3" width="67" height="11" /> 
        <rect x="463" y="550" rx="3" ry="3" width="140" height="11" /> 
        <rect x="514" y="598" rx="3" ry="3" width="53" height="11" /> 
        <rect x="574" y="598" rx="3" ry="3" width="72" height="11" /> 
        <rect x="405" y="598" rx="3" ry="3" width="100" height="11" /> 
        <rect x="387" y="621" rx="3" ry="3" width="37" height="11" /> 
        <rect x="405" y="573" rx="3" ry="3" width="140" height="11" /> 
        <rect x="553" y="573" rx="3" ry="3" width="173" height="11" /> 
        <rect x="7" y="362" rx="10" ry="10" width="237" height="49" /> 
        <rect x="7" y="327" rx="10" ry="10" width="85" height="27" /> 
        <rect x="7" y="288" rx="10" ry="10" width="85" height="27" /> 
        <rect x="511" y="477" rx="0" ry="0" width="194" height="248" /> 
        <rect x="572" y="565" rx="0" ry="0" width="37" height="36" /> 
        <circle cx="595" cy="612" r="112" /> 
        <circle cx="587" cy="571" r="20" /> 
        <rect x="7" y="424" rx="10" ry="10" width="162" height="63" /> 
        <rect x="7" y="44" rx="10" ry="10" width="201" height="210" /> 
        <circle cx="223" cy="28" r="23" />
    </clipPath>
    <linearGradient id="fill">
      <stop
        offset="0.599964"
        stop-color="#f5f5f5"
        stop-opacity="1"
      >
        <animate
          attributeName="offset"
          values="-2; -2; 1"
          keyTimes="0; 0.25; 1"
          dur="2s"
          repeatCount="indefinite"
        ></animate>
      </stop>
      <stop
        offset="1.59996"
        stop-color="#fbf8e0"
        stop-opacity="1"
      >
        <animate
          attributeName="offset"
          values="-1; -1; 2"
          keyTimes="0; 0.25; 1"
          dur="2s"
          repeatCount="indefinite"
        ></animate>
      </stop>
      <stop
        offset="2.59996"
        stop-color="#f5f5f5"
        stop-opacity="1"
      >
        <animate
          attributeName="offset"
          values="0; 0; 3"
          keyTimes="0; 0.25; 1"
          dur="2s"
          repeatCount="indefinite"
        ></animate>
      </stop>
    </linearGradient>
  </defs>
</svg>