<?xml version="1.0" standalone="no"?>
<!DOCTYPE svg PUBLIC "-//W3C//DTD SVG 20010904//EN"
 "http://www.w3.org/TR/2001/REC-SVG-20010904/DTD/svg10.dtd">
<svg version="1.0" xmlns="http://www.w3.org/2000/svg"
 width="360.000000pt" height="360.000000pt" viewBox="0 0 360.000000 360.000000"
 preserveAspectRatio="xMidYMid meet">

<g transform="translate(0.000000,360.000000) scale(0.100000,-0.100000)"
fill="#000000" stroke="none">
<path d="M1840 2840 l0 -50 -50 0 -51 0 3 -325 3 -325 -47 0 -48 0 0 -50 0
-50 -75 0 -75 0 0 -50 0 -50 -80 0 -80 0 0 -50 0 -50 -47 0 -48 0 3 -50 4 -50
-101 0 -101 0 0 50 0 50 -55 0 -55 0 0 50 0 50 -50 0 -50 0 0 100 0 100 -45 0
-45 0 0 -300 0 -300 45 0 45 0 0 -50 0 -50 50 0 50 0 0 -50 0 -50 55 0 55 0 0
-50 0 -50 60 0 c33 0 60 -4 60 -10 0 -5 7 -10 15 -10 8 0 15 -5 15 -11 0 -7
10 -20 23 -31 21 -19 22 -24 22 -229 l0 -209 103 0 102 0 0 50 0 50 -55 0 -55
0 0 50 0 50 55 0 55 0 0 50 0 50 50 0 50 0 0 50 0 50 50 0 50 0 0 -50 0 -50
48 0 47 0 -3 -150 -3 -150 106 0 106 0 -3 47 -3 48 -52 3 -53 3 0 200 0 199
55 0 55 0 0 50 0 50 50 0 50 0 0 75 0 75 45 0 45 0 0 175 0 175 50 0 50 0 0
-50 0 -50 55 0 55 0 0 100 0 100 -105 0 -105 0 0 100 0 100 203 0 202 0 -1 47
-2 48 -148 0 -149 0 -3 53 -3 52 250 0 251 0 0 225 0 225 -50 0 -50 0 0 50 0
50 -400 0 -400 0 0 -50z m210 -150 l0 -50 -50 0 -50 0 0 50 0 50 50 0 50 0 0
-50z"/>
<path d="M250 1115 l0 -25 400 0 400 0 0 25 0 25 -400 0 -400 0 0 -25z"/>
<path d="M2050 1115 l0 -25 700 0 700 0 0 25 0 25 -700 0 -700 0 0 -25z"/>
<path d="M3000 965 c0 -24 2 -25 70 -25 68 0 70 1 70 25 0 24 -2 25 -70 25
-68 0 -70 -1 -70 -25z"/>
<path d="M550 915 c0 -25 0 -25 98 -25 97 0 97 0 97 25 0 25 0 25 -97 25 -98
0 -98 0 -98 -25z"/>
<path d="M2290 815 c0 -21 5 -25 30 -25 25 0 30 4 30 25 0 21 -5 25 -30 25
-25 0 -30 -4 -30 -25z"/>
<path d="M250 765 c0 -25 0 -25 95 -25 95 0 95 0 95 25 0 25 0 25 -95 25 -95
0 -95 0 -95 -25z"/>
<path d="M940 765 c0 -24 3 -25 55 -25 52 0 55 1 55 25 0 24 -3 25 -55 25 -52
0 -55 -1 -55 -25z"/>
<path d="M2647 783 c-4 -3 -7 -15 -7 -25 0 -16 10 -18 105 -18 l105 0 0 25 c0
25 0 25 -98 25 -54 0 -102 -3 -105 -7z"/>
</g>
</svg>
